GIL04_slow3_RRA_states
nRows=5
nColumns=47

# SIMM Motion File Header:
name GIL04_slow3_RRA_states
datacolumns 47
datarows 5
otherdata 1
range 0.41133000000000025000 0.41333000000000025000
endheader
time	pelvis_tx	pelvis_ty	pelvis_tz	pelvis_tilt	pelvis_list	pelvis_rotation	hip_flexion_r	hip_adduction_r	hip_rotation_r	knee_angle_r	ankle_angle_r	subtalar_angle_r	mtp_angle_r	hip_flexion_l	hip_adduction_l	hip_rotation_l	knee_angle_l	ankle_angle_l	subtalar_angle_l	mtp_angle_l	lumbar_extension	lumbar_bending	lumbar_rotation	pelvis_tx_u	pelvis_ty_u	pelvis_tz_u	pelvis_tilt_u	pelvis_list_u	pelvis_rotation_u	hip_flexion_r_u	hip_adduction_r_u	hip_rotation_r_u	knee_angle_r_u	ankle_angle_r_u	subtalar_angle_r_u	mtp_angle_r_u	hip_flexion_l_u	hip_adduction_l_u	hip_rotation_l_u	knee_angle_l_u	ankle_angle_l_u	subtalar_angle_l_u	mtp_angle_l_u	lumbar_extension_u	lumbar_bending_u	lumbar_rotation_u
      0.41133000000000025000	      0.34703325867867385000	      0.74181180329268248000	     -0.22448415055766532000	     -0.70176561427974649000	      0.46342050662182693000	      0.85149160019484671000	     -4.84726363692983140000	      4.71378437994769680000	      3.21751021811811230000	     -7.09897731157856080000	     10.12467875800473900000	      0.00000000000012893942	     -0.00000000000000997602	     25.45540474314425000000	     -1.85944017962076400000	     -8.69083456989961080000	    -31.00234030145326300000	      3.02852137922928800000	      0.00000000000000315784	      0.00000000000000730064	     -6.64391713239646720000	     -0.52250978319089469000	      5.35533252519414930000	      0.80149489588284439000	     -0.11483316920018838000	     -0.07628341907796432100	      6.47528798909036940000	     -3.18336825994577980000	      7.88391761806990930000	   -123.46930649934055000000	     -0.14062357036696815000	     54.88023529979626900000	     84.51157255476344700000	     -0.00780885188267901010	      0.00000000000052146537	      0.00000000000043459709	     26.97376884340231100000	     17.74097787874017800000	    -52.55328099516072600000	    313.87581591671363000000	    -47.14684741814520700000	      0.00000000000003684501	      0.00000000000003759752	    -13.15578376554374000000	      7.61792883020776210000	      0.40290130643478950000
      0.41183000000000025000	      0.34743411661804929000	      0.74175421491309546000	     -0.22452223708693855000	     -0.69855257774203261000	      0.46179762823409948000	      0.85541597220246124000	     -4.90896865687478990000	      4.71374780802314320000	      3.24494257898529080000	     -7.05674516047031200000	     10.12464686895986300000	      0.00000000000012919849	     -0.00000000000000975115	     25.46877425717301700000	     -1.85058314949653520000	     -8.71711226642963940000	    -30.84522867768693300000	      3.00478328967873810000	      0.00000000000000317670	      0.00000000000000731967	     -6.65044798163254210000	     -0.51869263097941165000	      5.35553259385322900000	      0.80193719253042206000	     -0.11552019649149710000	     -0.07606273652435027700	      6.37664738358588680000	     -3.30825357781059330000	      7.81365346456568770000	   -123.35026427694322000000	     -0.00565546437275513650	     54.84809156383044400000	     84.41657727032286100000	     -0.11950478815925293000	      0.00000000000051271275	      0.00000000000045055203	     26.50469303366053700000	     17.68723639264496600000	    -52.55632552624037100000	    314.56998744951659000000	    -47.80536855911110900000	      0.00000000000003964062	      0.00000000000003713777	    -12.96736049543950000000	      7.65073854816771170000	      0.39706923691041801000
      0.41233000000000025000	      0.34783519620172565000	      0.74169628324917325000	     -0.22456021333258031000	     -0.69538917875732564000	      0.46011214085137225000	      0.85930533747271720000	     -4.97061338929794250000	      4.71377873736275440000	      3.27235719247149780000	     -7.01456119246291100000	     10.12455944683427800000	      0.00000000000012945290	     -0.00000000000000950740	     25.48190984548642700000	     -1.84175285448224610000	     -8.74338970831506930000	    -30.68777101046783100000	      2.98071615892023580000	      0.00000000000000319635	      0.00000000000000733802	     -6.65688423890018650000	     -0.51485898172367917000	      5.35572928997964580000	      0.80238147176211772000	     -0.11620630505375219000	     -0.07584228457161362700	      6.27673572829849210000	     -3.43381189727398390000	      7.74389228085138460000	   -123.22815073864525000000	      0.12938976606795805000	     54.80924455930495800000	     84.31883311343010200000	     -0.23003834200978177000	      0.00000000000048438587	      0.00000000000052001057	     26.03807366002219200000	     17.63402743471545600000	    -52.55224737120446600000	    315.25997932573597000000	    -48.46299934885549700000	      0.00000000000003947074	      0.00000000000003614730	    -12.77741350135613100000	      7.68392573670585310000	      0.38941046230405357000
      0.41283000000000025000	      0.34823649841445370000	      0.74163800876094133000	     -0.22459807942286325000	     -0.69227605645472579000	      0.45836370599509779000	      0.86315995056659012000	     -5.03219629162177370000	      4.71387720912450710000	      3.29975071202811550000	     -6.97242678702543280000	     10.12441702650896500000	      0.00000000000012969216	     -0.00000000000000925932	     25.49481275079412200000	     -1.83294903297412830000	     -8.76966333495440330000	    -30.52996941129662300000	      2.95632044752332760000	      0.00000000000000321560	      0.00000000000000735582	     -6.66322513994068720000	     -0.51100863977634992000	      5.35592169573571740000	      0.80282769830090117000	     -0.11689149538216050000	     -0.07562214104131791100	      6.17553754952749580000	     -3.56003210846603710000	      7.67464772733414420000	   -123.10294140096205000000	      0.26450285128748224000	     54.76372838881478300000	     84.21833100892385500000	     -0.33939587294461088000	      0.00000000000045382756	      0.00000000000045915258	     25.57397464238076200000	     17.58135307964012700000	    -52.54109626138026100000	    315.94569269795693000000	    -49.11968612321784600000	      0.00000000000003805706	      0.00000000000003643359	    -12.58593558169696400000	      7.71750567944633040000	      0.37990017100639939000
      0.41333000000000025000	      0.34863802421873746000	      0.74157939190650024000	     -0.22463583553798366000	     -0.68921385829628878000	      0.45655200026121939000	      0.86698007367190044000	     -5.09371581047525890000	      4.71404325006546190000	      3.32711981456943560000	     -6.93034332307441490000	     10.12422025203059000000	      0.00000000000012991352	     -0.00000000000000902726	     25.50748425086711500000	     -1.82417141198087720000	     -8.79592963433218780000	    -30.37182604733480300000	      2.93159663915807120000	      0.00000000000000323521	      0.00000000000000737404	     -6.66946991801618520000	     -0.50714140804446350000	      5.35610887731524970000	      0.80327583655566670000	     -0.11757576862306042000	     -0.07540238393936785100	      6.07303695966856340000	     -3.68690305364087930000	      7.60593409320101440000	   -122.97461086514511000000	      0.39967489284071306000	     54.71157448485283200000	     84.11505924321694700000	     -0.44754631141945506000	      0.00000000000045325873	      0.00000000000043561347	     25.11246063382350300000	     17.52921530689884800000	    -52.52292368444331300000	    316.62702781882297000000	    -49.77537388174126000000	      0.00000000000003956524	      0.00000000000003487392	    -12.39291909742392400000	      7.75149357584141270000	      0.36851287556757178000
